<svg width="16" height="14" viewBox="0 0 16 14" fill="none" xmlns="http://www.w3.org/2000/svg">
<path d="M1.3585 5.45146C1.166 5.25347 0.849453 5.24901 0.651461 5.4415C0.453468 5.634 0.44901 5.95055 0.641503 6.14854L1.3585 5.45146ZM8 13L7.6415 13.3485C7.73564 13.4454 7.86495 13.5 8 13.5C8.13505 13.5 8.26436 13.4454 8.3585 13.3485L8 13ZM15.3585 6.14854C15.551 5.95055 15.5465 5.634 15.3485 5.4415C15.1505 5.24901 14.834 5.25347 14.6415 5.45146L15.3585 6.14854ZM2.52551 0.651471C2.33302 0.453473 2.01647 0.449005 1.81847 0.641493C1.62047 0.83398 1.61601 1.15053 1.80849 1.34853L2.52551 0.651471ZM8 7L7.64149 7.34853C7.73563 7.44537 7.86495 7.5 8 7.5C8.13506 7.5 8.26437 7.44537 8.35851 7.34853L8 7ZM14.1915 1.34853C14.384 1.15053 14.3795 0.83398 14.1815 0.641493C13.9835 0.449005 13.667 0.453473 13.4745 0.651471L14.1915 1.34853ZM0.641503 6.14854L7.6415 13.3485L8.3585 12.6515L1.3585 5.45146L0.641503 6.14854ZM8.3585 13.3485L15.3585 6.14854L14.6415 5.45146L7.6415 12.6515L8.3585 13.3485ZM1.80849 1.34853L7.64149 7.34853L8.35851 6.65147L2.52551 0.651471L1.80849 1.34853ZM8.35851 7.34853L14.1915 1.34853L13.4745 0.651471L7.64149 6.65147L8.35851 7.34853Z" fill="#27272A"/>
</svg>
